P3
16 32
255
255 255 255 255 255 255 255 255 255 255 255 255 255 255 255 255 255 255 255 255 255 255 255 255 255 255 255 255 255 255 255 255 255 255 255 255 255 255 255 255 255 255 255 255 255 255 255 255 
255 255 255 255 255 255 255 255 255 255 255 255 255 255 255 255 255 255 255 255 255 255 255 255 255 255 255 255 255 255 255 255 255 255 255 255 255 255 255 255 255 255 255 255 255 255 255 255 
255 255 255 255 255 255 255 255 255 255 255 255 255 255 255 255 255 255 255 255 255 255 255 255 255 255 255 255 255 255 255 255 255 255 255 255 255 255 255 255 255 255 255 255 255 255 255 255 
255 255 255 255 255 255 255 255 255 255 255 255 255 255 255 255 255 255 255 255 255 255 255 255 255 255 255 255 255 255 255 255 255 255 255 255 255 255 255 255 255 255 255 255 255 255 255 255 
255 255 255 255 255 255 255 255 255 255 255 255 255 255 255 255 255 255 255 255 255 255 255 255 255 255 255 64  64  64  64  64  64  64  64  64  64  64  64  64  64  64  64  64  64  255 255 255 
255 255 255 255 255 255 255 255 255 255 255 255 255 255 255 64  64  64  64  64  64  64  64  64  64  64  64  64  64  64  64  64  64  234 183 71  234 183 71  234 183 71  64  64  64  64  64  64  
255 255 255 255 255 255 255 255 255 255 255 255 255 255 255 64  64  64  64  64  64  234 183 71  234 183 71  234 183 71  234 183 71  234 183 71  234 183 71  234 183 71  234 183 71  64  64  64  
255 255 255 255 255 255 255 255 255 255 255 255 64  64  64  64  64  64  234 183 71  234 183 71  234 183 71  234 183 71  234 183 71  234 183 71  234 183 71  234 183 71  234 183 71  64  64  64  
255 255 255 255 255 255 255 255 255 255 255 255 64  64  64  234 183 71  234 183 71  234 183 71  234 183 71  234 183 71  234 183 71  234 183 71  234 183 71  234 183 71  234 183 71  64  64  64  
255 255 255 255 255 255 255 255 255 255 255 255 64  64  64  64  64  64  234 183 71  234 183 71  234 183 71  234 183 71  234 183 71  234 183 71  234 183 71  234 183 71  234 183 71  64  64  64  
255 255 255 255 255 255 255 255 255 255 255 255 64  64  64  64  64  64  64  64  64  67  81  95  67  81  95  234 183 71  234 183 71  234 183 71  234 183 71  67  81  95  64  64  64  64  64  64  
255 255 255 255 255 255 255 255 255 255 255 255 255 255 255 64  64  64  64  64  64  67  81  95  67  81  95  67  81  95  67  81  95  67  81  95  67  81  95  67  81  95  64  64  64  255 255 255 
255 255 255 255 255 255 255 255 255 255 255 255 255 255 255 64  64  64  255 226 180 255 226 180 255 226 180 255 226 180 67  81  95  67  81  95  255 226 180 64  64  64  64  64  64  255 255 255 
255 255 255 255 255 255 255 255 255 255 255 255 64  64  64  64  64  64  255 226 180 255 226 180 64  64  64  255 226 180 255 226 180 64  64  64  255 226 180 64  64  64  255 255 255 255 255 255 
255 255 255 255 255 255 64  64  64  64  64  64  64  64  64  64  64  64  65  92  126 255 226 180 220 28  0   255 226 180 255 226 180 220 28  0   255 226 180 64  64  64  255 255 255 255 255 255 
255 255 255 255 255 255 64  64  64  64  64  64  64  64  64  65  92  126 65  92  126 65  92  126 220 28  0   255 226 180 255 226 180 65  92  126 220 28  0   64  64  64  64  64  64  255 255 255 
255 255 255 64  64  64  64  64  64  234 138 72  234 138 72  65  92  126 234 138 72  234 138 72  220 28  0   234 138 72  65  92  126 65  92  126 220 28  0   64  64  64  64  64  64  64  64  64  
255 255 255 64  64  64  234 138 72  234 138 72  234 138 72  65  92  126 220 28  0   220 28  0   234 138 72  234 138 72  65  92  126 65  92  126 220 28  0   234 138 72  64  64  64  64  64  64  
255 255 255 64  64  64  234 138 72  234 138 72  234 138 72  234 138 72  234 138 72  234 138 72  234 138 72  234 138 72  234 138 72  234 138 72  220 28  0   234 138 72  234 138 72  64  64  64  
255 255 255 64  64  64  234 138 72  234 138 72  234 138 72  64  64  64  234 138 72  234 138 72  234 138 72  234 138 72  234 138 72  234 138 72  234 138 72  234 138 72  234 138 72  64  64  64  
255 255 255 64  64  64  234 138 72  64  64  64  64  64  64  234 138 72  234 138 72  234 138 72  234 138 72  64  64  64  64  64  64  234 138 72  234 138 72  234 138 72  234 138 72  64  64  64  
255 255 255 64  64  64  234 138 72  64  64  64  234 138 72  234 138 72  234 138 72  234 138 72  234 138 72  234 138 72  234 138 72  64  64  64  64  64  64  234 138 72  234 138 72  64  64  64  
255 255 255 64  64  64  64  64  64  64  64  64  234 138 72  234 138 72  234 138 72  234 138 72  234 138 72  234 138 72  234 138 72  234 138 72  234 138 72  64  64  64  64  64  64  64  64  64  
255 255 255 255 255 255 64  64  64  234 138 72  64  64  64  64  64  64  64  64  64  234 138 72  234 138 72  234 138 72  234 138 72  234 138 72  234 138 72  64  64  64  255 255 255 255 255 255 
255 255 255 64  64  64  64  64  64  234 138 72  64  64  64  255 255 255 255 255 255 64  64  64  234 138 72  234 138 72  234 138 72  234 138 72  234 138 72  64  64  64  255 255 255 255 255 255 
255 255 255 64  64  64  80  105 136 64  64  64  255 255 255 255 255 255 64  64  64  64  64  64  64  64  64  64  64  64  64  64  64  64  64  64  64  64  64  64  64  64  64  64  64  255 255 255 
255 255 255 64  64  64  181 145 68  64  64  64  255 255 255 255 255 255 64  64  64  80  105 136 80  105 136 80  105 136 80  105 136 80  105 136 80  105 136 64  64  64  64  64  64  64  64  64  
255 255 255 64  64  64  64  64  64  64  64  64  255 255 255 255 255 255 64  64  64  64  64  64  64  64  64  181 145 68  181 145 68  181 145 68  181 145 68  181 145 68  64  64  64  64  64  64  
255 255 255 64  64  64  64  64  64  255 255 255 255 255 255 255 255 255 255 255 255 255 255 255 64  64  64  64  64  64  64  64  64  64  64  64  64  64  64  64  64  64  64  64  64  255 255 255 
255 255 255 255 255 255 255 255 255 255 255 255 255 255 255 255 255 255 255 255 255 255 255 255 255 255 255 255 255 255 255 255 255 255 255 255 255 255 255 255 255 255 255 255 255 255 255 255 
255 255 255 255 255 255 255 255 255 255 255 255 255 255 255 255 255 255 255 255 255 255 255 255 255 255 255 255 255 255 255 255 255 255 255 255 255 255 255 255 255 255 255 255 255 255 255 255 
255 255 255 255 255 255 255 255 255 255 255 255 255 255 255 255 255 255 255 255 255 255 255 255 255 255 255 255 255 255 255 255 255 255 255 255 255 255 255 255 255 255 255 255 255 255 255 255 
