P3
16 32
255
255 255 255 255 255 255 255 255 255 255 255 255 255 255 255 255 255 255 255 255 255 255 255 255 255 255 255 255 255 255 255 255 255 255 255 255 255 255 255 255 255 255 255 255 255 255 255 255 
255 255 255 255 255 255 255 255 255 255 255 255 255 255 255 255 255 255 255 255 255 255 255 255 255 255 255 255 255 255 255 255 255 255 255 255 255 255 255 255 255 255 255 255 255 255 255 255 
255 255 255 255 255 255 255 255 255 255 255 255 255 255 255 255 255 255 255 255 255 255 255 255 255 255 255 255 255 255 255 255 255 255 255 255 255 255 255 255 255 255 255 255 255 255 255 255 
255 255 255 255 255 255 255 255 255 255 255 255 255 255 255 64  64  64  64  64  64  64  64  64  64  64  64  64  64  64  64  64  64  64  64  64  255 255 255 255 255 255 255 255 255 255 255 255 
255 255 255 255 255 255 255 255 255 255 255 255 64  64  64  64  64  64  234 183 71  234 183 71  234 183 71  234 183 71  234 183 71  64  64  64  64  64  64  255 255 255 255 255 255 255 255 255 
255 255 255 255 255 255 255 255 255 64  64  64  64  64  64  234 183 71  234 183 71  234 183 71  234 183 71  234 183 71  234 183 71  234 183 71  64  64  64  64  64  64  255 255 255 255 255 255 
255 255 255 255 255 255 255 255 255 64  64  64  234 183 71  234 183 71  234 183 71  234 183 71  234 183 71  234 183 71  234 183 71  234 183 71  234 183 71  64  64  64  255 255 255 255 255 255 
255 255 255 255 255 255 255 255 255 64  64  64  234 183 71  234 183 71  234 183 71  234 183 71  234 183 71  234 183 71  234 183 71  234 183 71  234 183 71  64  64  64  255 255 255 255 255 255 
255 255 255 255 255 255 255 255 255 64  64  64  234 183 71  234 183 71  234 183 71  234 183 71  234 183 71  234 183 71  234 183 71  234 183 71  234 183 71  64  64  64  255 255 255 255 255 255 
255 255 255 255 255 255 255 255 255 64  64  64  64  64  64  68  84  100 234 183 71  234 183 71  234 183 71  234 183 71  234 183 71  68  84  100 64  64  64  64  64  64  255 255 255 255 255 255 
255 255 255 255 255 255 255 255 255 255 255 255 64  64  64  68  84  100 68  84  100 68  84  100 68  84  100 68  84  100 68  84  100 68  84  100 64  64  64  255 255 255 255 255 255 255 255 255 
255 255 255 255 255 255 255 255 255 255 255 255 64  64  64  255 226 180 255 226 180 68  84  100 68  84  100 68  84  100 255 226 180 255 226 180 64  64  64  255 255 255 255 255 255 255 255 255 
255 255 255 255 255 255 255 255 255 255 255 255 64  64  64  255 226 180 255 226 180 57  52  45  255 226 180 57  52  45  255 226 180 255 226 180 64  64  64  255 255 255 255 255 255 255 255 255 
255 255 255 255 255 255 255 255 255 255 255 255 64  64  64  255 226 180 255 226 180 255 226 180 255 226 180 255 226 180 255 226 180 255 226 180 64  64  64  255 255 255 255 255 255 255 255 255 
255 255 255 255 255 255 255 255 255 64  64  64  64  64  64  65  92  126 255 226 180 35  27  23  35  27  23  35  27  23  255 226 180 65  92  126 64  64  64  64  64  64  255 255 255 255 255 255 
255 255 255 255 255 255 64  64  64  64  64  64  65  92  126 65  92  126 65  92  126 216 116 68  216 116 68  216 116 68  65  92  126 65  92  126 71  103 144 64  64  64  64  64  64  255 255 255 
255 255 255 255 255 255 64  64  64  216 116 68  50  50  58  65  92  126 65  92  126 216 116 68  216 116 68  216 116 68  65  92  126 65  92  126 50  50  58  216 116 68  64  64  64  255 255 255 
255 255 255 64  64  64  216 116 68  216 116 68  216 116 68  50  50  58  50  50  58  216 116 68  216 116 68  216 116 68  50  50  58  50  50  58  216 116 68  216 116 68  216 116 68  64  64  64  
255 255 255 64  64  64  216 116 68  216 116 68  216 116 68  216 116 68  216 116 68  216 116 68  216 116 68  216 116 68  216 116 68  216 116 68  216 116 68  216 116 68  216 116 68  64  64  64  
255 255 255 64  64  64  216 116 68  216 116 68  216 116 68  64  64  64  216 116 68  216 116 68  216 116 68  216 116 68  216 116 68  216 116 68  64  64  64  64  64  64  216 116 68  64  64  64  
255 255 255 64  64  64  216 116 68  216 116 68  64  64  64  64  64  64  216 116 68  216 116 68  216 116 68  216 116 68  216 116 68  216 116 68  216 116 68  64  64  64  216 116 68  64  64  64  
255 255 255 64  64  64  216 116 68  216 116 68  64  64  64  238 162 70  238 162 70  238 162 70  238 162 70  238 162 70  238 162 70  238 162 70  238 162 70  64  64  64  64  64  64  64  64  64  
255 255 255 64  64  64  64  64  64  64  64  64  64  64  64  234 138 72  234 138 72  234 138 72  234 138 72  234 138 72  234 138 72  234 138 72  234 138 72  64  64  64  64  64  64  255 255 255 
255 255 255 255 255 255 255 255 255 64  64  64  234 138 72  234 138 72  234 138 72  234 138 72  234 138 72  234 138 72  234 138 72  234 138 72  234 138 72  234 138 72  64  64  64  255 255 255 
255 255 255 255 255 255 64  64  64  234 138 72  234 138 72  234 138 72  234 138 72  64  64  64  64  64  64  64  64  64  64  64  64  234 138 72  234 138 72  234 138 72  64  64  64  255 255 255 
255 255 255 255 255 255 64  64  64  234 138 72  234 138 72  234 138 72  64  64  64  64  64  64  255 255 255 255 255 255 64  64  64  234 138 72  234 138 72  234 138 72  64  64  64  255 255 255 
255 255 255 255 255 255 64  64  64  64  64  64  234 138 72  234 138 72  64  64  64  255 255 255 255 255 255 255 255 255 64  64  64  234 138 72  234 138 72  64  64  64  64  64  64  255 255 255 
255 255 255 64  64  64  64  64  64  82  110 144 82  110 144 82  110 144 64  64  64  255 255 255 255 255 255 255 255 255 64  64  64  68  97  135 68  97  135 68  97  135 64  64  64  64  64  64  
255 255 255 64  64  64  82  110 144 82  110 144 82  110 144 64  64  64  255 255 255 255 255 255 255 255 255 255 255 255 255 255 255 64  64  64  64  64  64  210 166 69  210 166 69  64  64  64  
255 255 255 64  64  64  210 166 69  210 166 69  64  64  64  255 255 255 255 255 255 255 255 255 255 255 255 255 255 255 255 255 255 255 255 255 64  64  64  64  64  64  64  64  64  64  64  64  
255 255 255 64  64  64  64  64  64  64  64  64  64  64  64  255 255 255 255 255 255 255 255 255 255 255 255 255 255 255 255 255 255 255 255 255 255 255 255 255 255 255 255 255 255 255 255 255 
255 255 255 255 255 255 255 255 255 255 255 255 255 255 255 255 255 255 255 255 255 255 255 255 255 255 255 255 255 255 255 255 255 255 255 255 255 255 255 255 255 255 255 255 255 255 255 255 
