P3
16 32
255
255 255 255 255 255 255 255 255 255 255 255 255 255 255 255 255 255 255 255 255 255 255 255 255 255 255 255 255 255 255 255 255 255 255 255 255 255 255 255 255 255 255 255 255 255 255 255 255 
255 255 255 255 255 255 255 255 255 255 255 255 255 255 255 255 255 255 255 255 255 255 255 255 255 255 255 255 255 255 255 255 255 255 255 255 255 255 255 255 255 255 255 255 255 255 255 255 
255 255 255 255 255 255 255 255 255 255 255 255 255 255 255 255 255 255 255 255 255 255 255 255 255 255 255 255 255 255 255 255 255 255 255 255 255 255 255 255 255 255 255 255 255 255 255 255 
255 255 255 255 255 255 255 255 255 255 255 255 255 255 255 64  64  64  64  64  64  64  64  64  64  64  64  64  64  64  64  64  64  64  64  64  255 255 255 255 255 255 255 255 255 255 255 255 
255 255 255 255 255 255 255 255 255 255 255 255 64  64  64  64  64  64  234 183 71  234 183 71  234 183 71  234 183 71  234 183 71  64  64  64  64  64  64  255 255 255 255 255 255 255 255 255 
255 255 255 255 255 255 255 255 255 64  64  64  64  64  64  234 183 71  234 183 71  234 183 71  234 183 71  234 183 71  234 183 71  234 183 71  64  64  64  64  64  64  255 255 255 255 255 255 
255 255 255 255 255 255 255 255 255 64  64  64  234 183 71  234 183 71  234 183 71  234 183 71  234 183 71  234 183 71  234 183 71  234 183 71  234 183 71  64  64  64  255 255 255 255 255 255 
255 255 255 255 255 255 255 255 255 64  64  64  234 183 71  234 183 71  234 183 71  234 183 71  234 183 71  234 183 71  234 183 71  234 183 71  234 183 71  64  64  64  255 255 255 255 255 255 
255 255 255 255 255 255 255 255 255 64  64  64  64  64  64  234 183 71  234 183 71  234 183 71  234 183 71  234 183 71  234 183 71  234 183 71  234 183 71  64  64  64  255 255 255 255 255 255 
255 255 255 255 255 255 255 255 255 255 255 255 64  64  64  255 226 180 255 226 180 255 226 180 255 226 180 255 226 180 255 226 180 255 226 180 64  64  64  64  64  64  255 255 255 255 255 255 
255 255 255 255 255 255 255 255 255 255 255 255 64  64  64  255 226 180 64  64  64  255 226 180 255 226 180 255 226 180 255 226 180 255 226 180 64  64  64  255 255 255 255 255 255 255 255 255 
255 255 255 255 255 255 255 255 255 255 255 255 64  64  64  255 226 180 255 226 180 255 226 180 255 226 180 255 226 180 255 226 180 255 226 180 64  64  64  255 255 255 255 255 255 255 255 255 
255 255 255 255 255 255 255 255 255 255 255 255 64  64  64  64  64  64  255 226 180 255 226 180 255 226 180 255 226 180 255 226 180 255 226 180 64  64  64  255 255 255 255 255 255 255 255 255 
255 255 255 255 255 255 255 255 255 64  64  64  64  64  64  255 226 180 255 226 180 255 226 180 255 226 180 255 226 180 255 226 180 64  64  64  64  64  64  255 255 255 255 255 255 255 255 255 
255 255 255 255 255 255 255 255 255 64  64  64  64  64  64  255 226 180 255 226 180 255 226 180 255 226 180 255 226 180 64  64  64  64  64  64  64  64  64  64  64  64  255 255 255 255 255 255 
255 255 255 249 249 249 50  50  58  73  69  67  64  64  64  64  64  64  64  64  64  64  64  64  64  64  64  64  64  64  64  64  64  216 116 68  216 116 68  64  64  64  64  64  64  255 255 255 
255 255 255 50  50  58  216 116 68  215 116 68  216 116 68  216 116 68  216 116 68  216 116 68  216 116 68  216 116 68  216 116 68  216 116 68  216 116 68  216 116 68  64  64  64  255 255 255 
50  50  58  50  50  58  216 116 68  216 116 68  217 120 74  216 116 68  50  50  58  216 116 68  216 116 68  216 116 68  216 116 68  216 116 68  216 116 68  216 116 68  216 116 68  64  64  64  
50  50  58  216 116 68  216 116 68  216 116 68  216 116 68  50  50  58  50  50  58  216 116 68  216 116 68  216 116 68  216 116 68  216 116 68  64  64  64  216 116 68  216 116 68  64  64  64  
50  50  58  216 116 68  216 116 68  50  50  58  50  50  58  50  50  58  216 116 68  216 116 68  216 116 68  216 116 68  216 116 68  64  64  64  216 116 68  216 116 68  216 116 68  64  64  64  
50  50  58  50  50  58  50  50  58  50  50  58  255 255 255 50  50  58  216 116 68  216 116 68  216 116 68  216 116 68  216 116 68  64  64  64  216 116 68  216 116 68  216 116 68  64  64  64  
255 255 255 255 255 255 255 255 255 255 255 255 50  50  58  50  50  58  237 161 70  238 162 70  238 162 70  238 162 70  64  64  64  216 116 68  216 116 68  216 116 68  64  64  64  64  64  64  
255 255 255 255 255 255 255 255 255 50  50  58  50  50  58  235 147 86  234 138 72  234 138 72  234 138 72  234 138 72  64  64  64  216 116 68  216 116 68  64  64  64  64  64  64  255 255 255 
255 255 255 255 255 255 50  50  58  50  50  58  234 139 74  234 138 72  234 138 72  234 138 72  234 138 72  234 138 72  234 138 72  64  64  64  64  64  64  234 138 72  64  64  64  255 255 255 
255 255 255 255 255 255 64  64  64  234 138 72  234 138 72  234 138 72  234 138 72  64  64  64  64  64  64  64  64  64  64  64  64  234 138 72  234 138 72  234 138 72  64  64  64  255 255 255 
255 255 255 255 255 255 64  64  64  234 138 72  234 138 72  234 138 72  64  64  64  64  64  64  255 255 255 255 255 255 64  64  64  234 138 72  234 138 72  234 138 72  64  64  64  255 255 255 
255 255 255 255 255 255 64  64  64  64  64  64  234 138 72  234 138 72  64  64  64  255 255 255 255 255 255 255 255 255 64  64  64  234 138 72  234 138 72  64  64  64  64  64  64  255 255 255 
255 255 255 64  64  64  64  64  64  82  110 144 82  110 144 82  110 144 64  64  64  255 255 255 255 255 255 255 255 255 64  64  64  68  97  135 68  97  135 68  97  135 64  64  64  64  64  64  
255 255 255 64  64  64  82  110 144 82  110 144 82  110 144 64  64  64  255 255 255 255 255 255 255 255 255 255 255 255 255 255 255 64  64  64  64  64  64  210 166 69  210 166 69  64  64  64  
255 255 255 64  64  64  210 166 69  210 166 69  64  64  64  255 255 255 255 255 255 255 255 255 255 255 255 255 255 255 255 255 255 255 255 255 64  64  64  64  64  64  64  64  64  64  64  64  
255 255 255 64  64  64  64  64  64  64  64  64  64  64  64  255 255 255 255 255 255 255 255 255 255 255 255 255 255 255 255 255 255 255 255 255 255 255 255 255 255 255 255 255 255 255 255 255 
255 255 255 255 255 255 255 255 255 255 255 255 255 255 255 255 255 255 255 255 255 255 255 255 255 255 255 255 255 255 255 255 255 255 255 255 255 255 255 255 255 255 255 255 255 255 255 255 
